<svg xmlns="http://www.w3.org/2000/svg" version="1.1" xmlns:xlink="http://www.w3.org/1999/xlink" xmlns:svgjs="http://svgjs.com/svgjs" width="512" height="512" x="0" y="0" viewBox="0 0 512 512" style="enable-background:new 0 0 512 512" xml:space="preserve"><g><g xmlns="http://www.w3.org/2000/svg"><path d="m453.229 451.474-53.199-144.844c-.11-.31-.223-.617-.339-.924l-101.453-276.222c-6.505-17.712-23.37-29.484-42.238-29.484s-35.733 11.772-42.238 29.484l-101.452 276.222c-.116.307-.23.614-.339.924l-53.2 144.844c-8.568 23.329 3.396 49.186 26.724 57.754 23.329 8.569 49.184-3.396 57.752-26.725l42.549-115.848h140.406l42.549 115.848c6.69 18.211 23.912 29.497 42.244 29.497 5.152 0 10.392-.892 15.51-2.771 23.327-8.569 35.292-34.427 26.724-57.755zm-234.377-174.817 37.148-101.142 37.148 101.143h-74.296z" fill="#000000" data-original="#000000" style=""></path></g></g></svg>