<svg xmlns="http://www.w3.org/2000/svg" version="1.1" xmlns:xlink="http://www.w3.org/1999/xlink" xmlns:svgjs="http://svgjs.com/svgjs" width="512" height="512" x="0" y="0" viewBox="0 0 24 24" style="enable-background:new 0 0 512 512" xml:space="preserve" class=""><g><path xmlns="http://www.w3.org/2000/svg" d="m21 3h-1v-2c0-.552-.448-1-1-1h-1c-.552 0-1 .448-1 1v2h-10v-2c0-.552-.448-1-1-1h-1c-.552 0-1 .448-1 1v2h-1c-1.654 0-3 1.346-3 3v15c0 1.654 1.346 3 3 3h18c1.654 0 3-1.346 3-3v-15c0-1.654-1.346-3-3-3zm1 18c0 .551-.449 1-1 1h-18c-.551 0-1-.449-1-1v-10.96h20z" fill="#000000" data-original="#000000" style="" class=""></path></g></svg>