<svg xmlns="http://www.w3.org/2000/svg" version="1.1" xmlns:xlink="http://www.w3.org/1999/xlink" xmlns:svgjs="http://svgjs.com/svgjs" width="512" height="512" x="0" y="0" viewBox="0 0 24 24" style="enable-background:new 0 0 512 512" xml:space="preserve" class=""><g transform="matrix(-1,0,0,1,24,0)"><g xmlns="http://www.w3.org/2000/svg" id="open_24_hours"><g><path d="m12 6c-.5527344 0-1 .4472656-1 1v5c0 .265625.1054688.5195313.2929688.7070313l3 3c.1953125.1953125.4511718.2929687.7070312.2929687s.5117188-.0976563.7070313-.2929688c.390625-.390625.390625-1.0234375 0-1.4140625l-2.7070313-2.7070312v-4.5859375c0-.5527344-.4472656-1-1-1z" fill="#000000" data-original="#000000" style="" class=""></path><path d="m21 11c-.5527344 0-1 .4472656-1 1 0 4.4111328-3.5888672 8-8 8s-8-3.5888672-8-8 3.5888672-8 8-8c1.8164063 0 3.5234375.6162109 4.8984375 1.6875l-1.6054688 1.6054688c-.2861328.2861328-.3720703.7158203-.2167969 1.0898438.154297.3740233.5195313.6171874.9238282.6171874h4c.5527344 0 1-.4472656 1-1v-4c0-.4042969-.2431641-.7695313-.6171875-.9238281-.3740234-.15625-.8037109-.0693359-1.0898438.2167969l-.9648437.9648437c-1.7509766-1.4375-3.9697266-2.2578125-6.328125-2.2578125-5.5136719 0-10 4.4863281-10 10s4.4863281 10 10 10 10-4.4863281 10-10c0-.5527344-.4472656-1-1-1z" fill="#000000" data-original="#000000" style="" class=""></path></g></g></g></svg>