<svg xmlns="http://www.w3.org/2000/svg" version="1.1" xmlns:xlink="http://www.w3.org/1999/xlink" xmlns:svgjs="http://svgjs.com/svgjs" width="512" height="512" x="0" y="0" viewBox="0 0 667.734 667.734" style="enable-background:new 0 0 512 512" xml:space="preserve" class="">
<g transform="matrix(-1,0,0,1,667.7345581054688,0)">
		<path d="M333.621,404.738c12.785,0,24.211-5.536,32.242-14.264h63.65c16.395,0,29.684-13.32,29.684-29.683    s-13.3-29.694-29.684-29.694h-63.672c-6.811-7.378-16.073-12.304-26.546-13.674l-56.743-79.884    c-9.52-13.375-28.066-16.48-41.42-6.993c-13.385,9.498-16.501,28.045-7.014,41.419l56.593,79.691    c-0.61,2.945-0.975,5.986-0.975,9.124C289.728,385.089,309.388,404.738,333.621,404.738z" fill="#000000" data-original="#000000" style="" class=""></path>
		<path d="M412.755,65.704l7.035,6.532c6.886,6.404,10.805,15.463,10.805,24.886c0,9.402-3.919,18.461-10.805,24.886l-22.841,21.256    c109.899,35.69,154.617,123.327,161.353,197.686H534.83c-10.934,0-19.789,8.823-19.789,19.768    c0,10.934,8.855,19.789,19.789,19.789h23.515c-9.927,115.82-107.019,206.852-225.474,206.852    c-97.852,0-208.297-67.322-224.799-205.834h26.696c10.912,0,19.789-8.846,19.789-19.789c0-10.977-8.867-19.832-19.789-19.832    h-26.75c8.845-102.553,85.752-185.671,185.221-204.378v42.833c0,5.665,3.374,10.805,8.535,13.043    c5.226,2.259,11.254,1.221,15.398-2.634l89.104-83.054c2.892-2.698,4.53-6.468,4.53-10.43c0-3.94-1.639-7.71-4.53-10.366    L317.173,3.82C313.029-0.056,307-1.073,301.785,1.186c-5.162,2.259-8.535,7.399-8.535,13.064v42.94    c-0.332,0.021-0.632-0.107-0.963-0.064c-149.435,21.031-264.42,149.37-264.42,304.587c0,184.343,153.707,306.021,305.015,306.021    c169.448,0,311.676-137.441,306.867-306.804C633.764,151.241,464.166,75.705,412.755,65.704z" fill="#000000" data-original="#000000" style="" class=""></path>
</g>
</svg>