<svg xmlns="http://www.w3.org/2000/svg" viewBox="0 0 50 50"><path d="M 11.09375 2 C 6.394531 2.800781 2.800781 6.394531 2 11.09375 L 6 11.6875 C 6.398438 8.6875 8.6875 6.398438 11.6875 6 Z M 17 2 L 17 6 L 23 6 L 23 2 Z M 28 2 L 28 6 L 34 6 L 34 2 Z M 38.90625 2 L 38.3125 6 C 41.210938 6.398438 43.5 8.6875 44 11.6875 L 48 11.09375 C 47.199219 6.394531 43.605469 2.699219 38.90625 2 Z M 2 16 L 2 22 L 6 22 L 6 16 Z M 44 17 L 44 23 L 48 23 L 48 17 Z M 2 27 L 2 33 L 6 33 L 6 27 Z M 44 28 L 44 34 L 48 34 L 48 28 Z M 6 38.3125 L 2 38.90625 C 2.800781 43.605469 6.394531 47.300781 11.09375 48 L 11.6875 44 C 8.789063 43.601563 6.5 41.3125 6 38.3125 Z M 44 38.3125 C 43.601563 41.210938 41.3125 43.5 38.3125 44 L 38.90625 48 C 43.605469 47.199219 47.199219 43.605469 48 38.90625 Z M 16 44 L 16 48 L 22 48 L 22 44 Z M 27 44 L 27 48 L 33 48 L 33 44 Z"></path></svg>