<svg xmlns="http://www.w3.org/2000/svg" version="1.1" xmlns:xlink="http://www.w3.org/1999/xlink" xmlns:svgjs="http://svgjs.com/svgjs" width="512" height="512" x="0" y="0" viewBox="0 0 24 24" style="enable-background:new 0 0 512 512" xml:space="preserve" class=""><g><path xmlns="http://www.w3.org/2000/svg" d="m5 22h14a1 1 0 0 0 1-1v-18a1 1 0 0 0 -1-1h-14a1 1 0 0 0 -1 1v18a1 1 0 0 0 1 1zm2.293-11.207a1 1 0 0 1 1.414 0l2.293 2.293 4.293-4.293a1 1 0 0 1 1.414 1.414l-5 5a1 1 0 0 1 -1.414 0l-3-3a1 1 0 0 1 0-1.414z" fill="#000000" data-original="#000000" style="" class=""></path></g></svg>