<svg xmlns="http://www.w3.org/2000/svg" version="1.1" xmlns:xlink="http://www.w3.org/1999/xlink" xmlns:svgjs="http://svgjs.com/svgjs" width="512" height="512" x="0" y="0" viewBox="0 0 24 24" style="enable-background:new 0 0 512 512" xml:space="preserve" class=""><g><path xmlns="http://www.w3.org/2000/svg" d="m20.71 4.29-3-3a1 1 0 0 0 -.71-.29h-11a3 3 0 0 0 -3 3v16a3 3 0 0 0 3 3h12a3 3 0 0 0 3-3v-15a1 1 0 0 0 -.29-.71zm-5 6.62-3.3 3.3a2 2 0 0 1 -2.82 0l-1.3-1.3a1 1 0 0 1 0-1.41 1 1 0 0 1 1.42 0l1.29 1.29 3.29-3.29a1 1 0 0 1 1.42 0 1 1 0 0 1 0 1.41z" fill="#000000" data-original="#000000" style="" class=""></path></g></svg>