<svg xmlns="http://www.w3.org/2000/svg" version="1.1" xmlns:xlink="http://www.w3.org/1999/xlink" xmlns:svgjs="http://svgjs.com/svgjs" width="512" height="512" x="0" y="0" viewBox="0 0 100 100" style="enable-background:new 0 0 512 512" xml:space="preserve" class=""><g transform="matrix(1.2400000000000002,0,0,1.2400000000000002,-11.999991302490251,-12.000040740966803)"><path xmlns="http://www.w3.org/2000/svg" d="m18.0097046 49.1918945-1.3329468 1.8671875c-1.7441406 2.4423828-1.1748047 5.8481445 1.2675781 7.5922852.9560547.6826172 2.0605469 1.0107422 3.1542969 1.0107422.3314209 0 .6603394-.0390015.9855957-.0985107-.1403809.6593018-.1652832 1.3442993-.0510254 2.0291748.2392578 1.434082 1.0224609 2.6889648 2.2060547 3.5336914.9335938.6660156 2.0263672 1.0136719 3.1503906 1.0136719.3017578 0 .6054688-.0249023.9082031-.0756836.3123779-.052124.6116943-.1409912.9046631-.2432251-.0090942 1.7103882.7744751 3.4005737 2.269165 4.4673462.9335938.6660156 2.0263672 1.0136719 3.1503906 1.0136719.3017578 0 .6054688-.0249023.9082031-.0756836.6846313-.1141968 1.3240967-.3598633 1.9017334-.7062988.2128296 1.4058228.9639282 2.7283936 2.2095947 3.6179199.9560547.6826172 2.0605469 1.0107422 3.1542969 1.0107422 1.7001953 0 3.3769531-.7929688 4.4384766-2.2788086l1.52948-2.144104 3.6921997 2.5845337c.9248047.6484375 2.0029297.9863281 3.1103516.9863281.3173828 0 .6367188-.027832.9560547-.0839844 1.4316406-.2529297 2.6796875-1.0473633 3.5136719-2.2387695.7672119-1.0961914 1.0487671-2.3771973.9343872-3.6155396.7706909.3995361 1.6156006.6126099 2.4806519.6126099.3173828 0 .6376953-.027832.9570312-.0839844 1.4316406-.2529297 2.6796875-1.0478516 3.5136719-2.2382812.777771-1.1105957 1.0878296-2.4421387.9237671-3.77771.6091309.230835 1.2495117.3631592 1.9043579.3631592.3173828 0 .6376953-.027832.9570312-.0839844 1.4316406-.2529297 2.6796875-1.0478516 3.5136719-2.2382812.7608643-1.0864868 1.0436401-2.3544312.9376831-3.5826416.8465576.5072632 1.7946777.78479 2.7713013.78479.3183594 0 .6376953-.027832.9570312-.0839844 1.4316406-.2524414 2.6796875-1.0473633 3.5136719-2.2382812s1.1542969-2.6352539.9013672-4.0668945c-.175354-.9967651-.6279907-1.8936157-1.2800293-2.6343384l6.6003418-5.2450562c.4140625-.3286133.5-.9233398.1972656-1.3564453l-11.993164-17.1274415c-.1523438-.2172852-.3847656-.3652344-.6455078-.4111328-.2607422-.0454102-.5302734.0141602-.7470703.1655273l-2.3505859 1.6459961c-2.7294922 1.9101562-6.1933594 2.2817383-9.2646484.9951172l-4.5771484-1.918457c-3.3380127-1.3988647-7.0189209-1.2904053-10.2297974.1915894-3.2373657-1.4921875-6.9549561-1.5723267-10.2526245-.1915894l-4.5771484 1.918457c-3.0712891 1.2871094-6.5361328.9155273-9.2646484-.9951172l-2.3505859-1.6459961c-.2167969-.1513672-.4853516-.2109375-.7470703-.1655273-.2607422.0458984-.4931641.1938477-.6455078.4111328l-11.9931643 17.1274414c-.1523438.2172852-.2119141.4863281-.1650391.7475586.0458984.2612305.1933594.4931641.4111328.6455078zm1.0967407 7.831543c-1.5449219-1.1030273-1.9052734-3.2573242-.8027344-4.8022461l2.0634766-2.8896484c.5332031-.7480469 1.3271484-1.2436523 2.234375-1.3950195.9052734-.1538086 1.8193359.0595703 2.5673828.59375 1.5421753 1.1005859 1.9020386 3.2487183.8076782 4.7935791l-1.7069702 2.3924561-.3604736.5048828c-1.1044922 1.5458983-3.2587891 1.9038085-4.8027344.802246zm8.8623047 7.0683594c-.9072266.1513672-1.8193359-.059082-2.5673828-.5932617s-1.2441406-1.328125-1.3955078-2.2348633c-.1513672-.9072266.0595703-1.8188477.5947266-2.5673828l2.1360474-2.9938965.8629761-1.208252c.0014038-.0020142.0021362-.0042114.00354-.0062256l.9320068-1.3062744c1.1054688-1.5458984 3.2597656-1.9038086 4.8027344-.8022461.7490234.5341797 1.2441406 1.328125 1.3955078 2.2353516.1523438.9067383-.0585938 1.8183594-.5927734 2.5668945l-3.9375 5.5151367c-.5332032.7480469-1.3271485 1.2436524-2.2343751 1.3950196zm7.2324219 5.1621093c-.9052734.152832-1.8193359-.0585938-2.5673828-.5932617-1.5449219-1.1025391-1.9052734-3.2568359-.8027344-4.8022461l3.9365234-5.5146484c.671875-.9404297 1.7324219-1.4414062 2.8076172-1.4414062.6923828 0 1.390625.2075195 1.9951172.6391602 1.5449219 1.1030273 1.9052734 3.2578125.8027344 4.8027344l-.9313354 1.3043823c-.0021362.0029907-.0050049.005127-.0071411.0081177l-1.3919067 1.951355-1.6071167 2.2507935c-.5332032.7480467-1.3271486 1.2436522-2.2343751 1.3950193zm10.4052734 2.4541016c-1.1044922 1.5463867-3.2597656 1.9038086-4.8027344.8022461-1.5449219-1.1030273-1.9052734-3.2578125-.8017578-4.8027344l1.4206543-1.9915771.6427002-.9003296c.5351562-.7466431 1.3267212-1.2411499 2.2325439-1.3922729.9111328-.152832 1.8193359.0595703 2.5673828.59375.7490234.5341797 1.2441406 1.328125 1.3955078 2.2348633.1468506.8745117-.0513306 1.7496338-.5446777 2.4823608-.0064697.008606-.0164795.0126343-.0227051.0215454-.0148315.0211792-.0167847.0462646-.0297241.0681763zm13.8613281-44.024414 4.5771484 1.918457c3.7089844 1.5546875 7.890625 1.1044922 11.1845703-1.2011719l1.5322266-1.0727539 10.8789063 15.5375977-6.1875 4.9169922-17.9941406-12.6420899c-1.6933594-1.1713867-3.6738281-1.7563477-5.6542969-1.7563477-1.9980469 0-3.9960938.5961914-5.6982422 1.7866211l-8.3720703 5.8554688c-1.5566406 1.0874023-3.7050781.7099609-4.7949219-.8447266-1.0888672-1.5556641-.7099609-3.706543.8466797-4.796875l9.3720703-6.59375c3.0371094-2.1254883 6.890625-2.5395508 10.3095703-1.1074218zm-36.2294922-.3554688 1.5322266 1.0727539c3.2929688 2.3056641 7.4755859 2.7558594 11.1845703 1.2011719l4.5771484-1.918457c2.3161621-.9692993 4.8745728-1.0770264 7.2423096-.3642578l-9.1368408 6.4287109c-2.4580078 1.7211914-3.0576172 5.1220703-1.3369141 7.5805664.8339844 1.1904297 2.0820312 1.9853516 3.5136719 2.237793 1.4316406.2514648 2.8759766-.0678711 4.0664062-.9013672l8.3720703-5.8554688c2.7070312-1.8925781 6.3515625-1.902832 9.0625-.0283203l18.5996094 13.0678711c.0006104.0004272.0013428.0005493.0019531.0009766.7529297.5273438 1.2558594 1.3164062 1.4150391 2.222168.1601562.9057617-.0429688 1.8193359-.5703125 2.5727539-.5273438.7529297-1.3164062 1.2558594-2.2216797 1.4155273-.9052734.1606445-1.8193359-.0419922-2.5732422-.5703125l-3.0824585-2.1582031c-.0001831-.0001221-.0003662-.0003662-.0005493-.0004883l-9.2207031-6.4560547c-.4511719-.315918-1.0751953-.2060547-1.3925781.2456055-.3164062.4526367-.2070312 1.0761719.2460938 1.3930664l1.3208008.9248047c.0001831.0001221.0003052.0003662.0004883.0004883l7.9000244 5.53125c.7524414.5274658 1.2553101 1.3161621 1.4144287 2.2216797.1601562.9057617-.0429688 1.8193359-.5703125 2.5722656-.5273438.753418-1.3164062 1.2563477-2.2216797 1.4160156-.9091797.1606445-1.8212891-.043457-2.5732422-.5703125l-9.2197266-6.4560547c-.4501953-.315918-1.0761719-.2070312-1.3925781.2456055s-.2070312 1.0761719.2460938 1.3930664l7.0175781 4.9140625c.7529297.5273438 1.2558594 1.3164062 1.4150391 2.222168.1601562.9057617-.0429688 1.8193359-.5703125 2.5722656-.5273438.753418-1.3164062 1.2563477-2.2226562 1.4160156-.9042969.1601562-1.8203125-.0439453-2.5722656-.5703125l-2.7885742-1.9526978c-.0001831-.0001221-.0003052-.0003052-.0004883-.0004272l-1.6882324-1.1821289-2.5402832-1.7788086c-.4511719-.315918-1.0761719-.2070312-1.3925781.2456055s-.2070312 1.0761719.2460938 1.3930664l4.2290039 2.9613647c1.5542603 1.088501 1.9329834 3.2390137.8442383 4.7940063-.5273438.753418-1.3164062 1.2563477-2.2216797 1.4160156-.9042969.1611328-1.8183594-.0419922-2.5732422-.5708008l-3.7661133-2.6367188c.4342651-.9684448.5762939-2.0426636.3969727-3.1132812-.2392578-1.434082-1.0224609-2.6884766-2.2060547-3.5332031-1.2446289-.8886108-2.739563-1.1692505-4.138855-.9136353.4337158-2.053833-.3415527-4.2661743-2.1560669-5.5619507-1.494751-1.067749-3.3484497-1.2593994-4.9631348-.694519.0090942-1.7102051-.7747192-3.4003296-2.2692871-4.4675903-1.8148804-1.295166-4.1581421-1.3085327-5.9595337-.2318726-.2126465-1.4058838-.963562-2.7283325-2.2094116-3.6172485-1.1835938-.8442383-2.6240234-1.1782227-4.0585938-.9384766-1.1848145.1976318-2.2319946.7832642-3.0413208 1.6418457l-6.838562-4.7883301z" fill="#000000" data-original="#000000" style="" class=""></path></g></svg>