<svg xmlns="http://www.w3.org/2000/svg" version="1.1" xmlns:xlink="http://www.w3.org/1999/xlink" xmlns:svgjs="http://svgjs.com/svgjs" width="512" height="512" x="0" y="0" viewBox="0 0 452.113 452.113" style="enable-background:new 0 0 512 512" xml:space="preserve" class=""><g><g xmlns="http://www.w3.org/2000/svg"><path d="m402.451 89.897c-20.588-26.954-38.189-38.275-67.288-16.117l-20.947 15.952c-5.04 3.823-23.501 5.097-41.364 6.337-1.388.091-2.782.205-4.176.296l-5.541-2.344c-21.629-9.21-31.465-13.392-56.445-11.344-5.04.444-10.695 1.041-16.651 1.661-16.236 1.718-44.863 4.682-54.932 3.556-.33-.444-.654-.916-1.126-1.303l-15.764-12.321c-28.774-22.551-46.552-11.469-67.527 15.229l-32.74 41.751c-10.222 13.027-19.438 27.022-17.749 41.119 1.217 9.87 7.259 18.762 13.181 23.381l22.522 17.636c4.625 3.675 7.788 7.492 10.047 11.782l-9.722 10.263c-7.077 7.43-9.153 18.478-5.45 28.826 3.556 10.047 12.117 18.159 22.34 21.214 2.935.853 5.899 1.274 8.772 1.274 1.422 0 2.782-.205 4.147-.381-.387 4.204.091 8.59 1.599 12.891 3.584 10.007 12.146 18.136 22.34 21.185 2.935.859 5.894 1.274 8.801 1.274 1.394 0 2.782-.205 4.119-.381-.381 4.204.091 8.596 1.599 12.919 3.59 10.018 12.151 18.108 22.374 21.151 2.935.865 5.865 1.274 8.772 1.274 1.781 0 3.556-.165 5.274-.495.267 2.065.711 4.147 1.485 6.184 3.288 9.045 11.048 16.395 20.207 19.177 2.782.859 5.569 1.28 8.329 1.28 6.696 0 13.005-2.52 17.476-7.259h.034v-.028l2.606-2.731 17.926 13.989c2.071 1.633 7.202 3.288 12.498 3.288 3.914 0 7.97-.916 11.822-2.759 8.681-4.141 15.292-12.555 17.215-21.919.205-1.07.358-2.167.444-3.26 1.929.415 3.851.683 5.865.683 4.267 0 8.624-.95 12.8-2.879 9.66-4.5 16.947-13.778 18.961-24.206.444-2.31.592-4.597.535-6.844 2.702.882 5.569 1.331 8.476 1.331 4.267 0 8.653-.95 12.828-2.873 9.626-4.477 16.89-13.779 18.961-24.212.358-1.809.506-3.612.535-5.387 3.823 1.957 8.061 2.981 12.419 2.981 4.295 0 8.653-.95 12.8-2.873 9.626-4.466 16.919-13.744 18.995-24.201 1.781-9.125-.592-18.108-6.195-24.457 16.503-7.225 34.606-17.533 49.63-36.676l14.814-11.31c11.941-9.102 18.136-17.897 19.467-27.705 1.781-13.306-5.569-26.163-17.186-41.392zm-342.454 6.912c20.503-26.135 30.987-28.854 50.933-13.249l10.934 8.562-84.327 107.503-15.553-12.151c-4.597-3.612-9.244-10.024-10.018-16.532-.978-7.942 3.465-17.334 15.292-32.387zm-18.079 163.465c-2.19-6.133-1.092-12.533 2.879-16.714l19.792-20.855c2.014-2.076 8.391-3.533 14.7-1.667 6.667 1.991 12.208 7.253 14.518 13.813 2.196 6.167 1.092 12.595-2.844 16.714v.034l-19.849 20.855c-1.957 2.076-8.357 3.499-14.638 1.661-6.673-1.986-12.243-7.265-14.558-13.841zm36.864 35.021c-2.162-6.19-1.07-12.629 2.873-16.799l17.869-18.756c3.971-4.176 10.314-5.569 16.623-3.698 6.667 1.957 12.208 7.231 14.552 13.778 2.196 6.161 1.07 12.555-2.873 16.765l-17.84 18.756c-3.971 4.147-10.337 5.598-16.651 3.732-6.64-1.98-12.215-7.287-14.553-13.778zm36.858 34.969c-2.167-6.201-1.041-12.595 2.901-16.771l17.84-18.756v-.04c3.971-4.142 10.337-5.586 16.651-3.692 6.61 1.957 12.208 7.259 14.524 13.778 2.19 6.161 1.092 12.595-2.844 16.759l-17.926 18.796c-3.937 4.119-10.286 5.535-16.56 3.703-6.644-1.989-12.242-7.263-14.586-13.777zm37.871 28.029c-.887-2.372-1.07-4.71-.831-6.963l2.702-2.844c0-.034.028-.034.028-.034v-.034l16.447-17.237c2.224-.358 4.562-.296 7.02.444 5.689 1.752 10.519 6.337 12.595 11.941 1.866 5.177 1.035 10.524-2.133 13.898l-9.483 9.916c-3.203 3.385-8.471 4.511-13.779 2.844-5.717-1.741-10.547-6.309-12.595-11.935h.028v.004zm196.648-71.207c-5.956 2.788-12.447 2.287-14.729.512l-45.807-35.823c-2.577-2.014-6.281-1.542-8.294 1.007-2.014 2.577-1.57 6.309 1.007 8.329l30.134 23.586c4.534 3.556 6.576 9.717 5.336 16.117-1.36 6.815-6.104 12.857-12.356 15.792-5.985 2.748-12.504 2.281-17.004-1.274l-30.168-23.586c-2.577-2.014-6.281-1.542-8.294 1.013-2.014 2.566-1.542 6.309 1.007 8.294l20.742 16.265c4.5 3.556 6.519 9.717 5.274 16.117-1.331 6.775-6.07 12.834-12.356 15.764-5.985 2.753-12.504 2.276-17.004-1.28-.034 0-.034 0-.034 0l-20.651-16.208c-2.577-2.014-6.309-1.542-8.329 1.007-2.014 2.577-1.542 6.281 1.013 8.3l19.081 14.933c.569 2.224.711 4.563.21 7.009-1.217 5.842-5.308 11.088-10.701 13.665-5.006 2.372-10.365 2.076-14.074-.802l-15.024-11.759c5.245-6.605 6.605-15.792 3.436-24.593-3.351-9.034-11.082-16.361-20.213-19.177-1.07-.324-2.133-.523-3.203-.734 1.866-5.865 1.781-12.413-.472-18.756-3.584-10.012-12.117-18.136-22.283-21.157-4.358-1.303-8.767-1.564-12.942-.978.358-4.176-.119-8.562-1.633-12.8-3.556-10.075-12.117-18.187-22.34-21.185-4.329-1.303-8.71-1.57-12.919-.978.381-4.176-.091-8.533-1.633-12.8-3.521-10.075-12.089-18.159-22.312-21.185-10.399-3.112-21.094-.569-28.177 6.519-2.071-3.226-4.648-6.263-7.788-9.125l84.677-107.945c9.216 1.69 27.29.33 59.944-3.083 5.894-.592 11.52-1.183 16.447-1.655 16.498-1.371 24.678.028 36.887 4.71-3.999.768-7.856 1.655-11.349 2.901l-53.481 19.348c-2.338.358-4.5.649-6.457.916-13.335 1.838-21.367 2.935-25.6 13.602-2.992 7.703-.745 17.277 5.956 24.98 11.11 12.834 30.248 17.573 50.58 12.8l30.191-3.857c12.328-1.621 22.932 6.94 33.189 15.167l89.566 70.195c4.534 3.533 6.576 9.728 5.336 16.117-1.361 6.832-6.1 12.873-12.386 15.775zm7.708-46.462-.034.028-82.785-64.848c-11.025-8.892-24.826-19.86-42.103-17.687l-30.754 3.971c-24.559 5.717-36.5-5.393-39.583-8.92-3.732-4.324-5.245-9.387-3.851-12.919 1.513-3.823 3.021-4.386 16.179-6.224 2.19-.296 4.562-.62 7.202-1.007.381-.091.768-.154 1.121-.302l54.044-19.524c9.722-3.499 23.262-4.443 36.358-5.336 17.334-1.189 35.146-2.469 47.946-9.483l84.178 109.687c-14.495 17.096-31.539 25.846-47.918 32.564m67.34-48.85-10.758 8.203-83.194-108.379 11.053-8.391c20.178-15.377 30.635-12.498 50.722 13.898l32.211 42.16c11.645 15.263 15.94 24.713 14.871 32.62-.888 6.52-5.627 12.829-14.905 19.889z" fill="#000000" data-original="#000000" style="" class=""></path></g></g></svg>