<svg xmlns="http://www.w3.org/2000/svg" version="1.1" xmlns:xlink="http://www.w3.org/1999/xlink" xmlns:svgjs="http://svgjs.com/svgjs" width="512" height="512" x="0" y="0" viewBox="0 0 512 512" style="enable-background:new 0 0 512 512" xml:space="preserve" class=""><g><g xmlns="http://www.w3.org/2000/svg"><path d="m205.272 358.429v-4.429h-110.326l20.568 123.111c2.561 15.335 15.703 26.465 31.251 26.465h35.486c8.799 0 17.273-3.703 23.25-10.159 5.978-6.457 9.018-15.19 8.34-23.963z" fill="#000000" data-original="#000000" style="" class=""></path><g><path d="m117.637 96.061h57.636v227.939h-57.636z" fill="#000000" data-original="#000000" style="" class=""></path><path d="m504.078 10.199c-4.878-2.611-10.795-2.324-15.398.745-.545.363-24.236 15.913-64.316 33.622v330.855c40.154 17.776 64.049 33.526 64.316 33.704 2.51 1.673 5.411 2.519 8.321 2.519 2.427 0 4.859-.588 7.077-1.775 4.877-2.61 7.922-7.693 7.922-13.225v-373.22c0-5.531-3.045-10.614-7.922-13.225z" fill="#000000" data-original="#000000" style="" class=""></path><path d="m205.272 95.835v228.404c76.517 2.267 143.312 21.401 189.091 38.835v-306.175c-49.361 18.829-114.944 36.76-189.091 38.936z" fill="#000000" data-original="#000000" style="" class=""></path><path d="m87.637 100.235-77.362 25.68c-6.135 2.037-10.275 7.773-10.275 14.236v139.758c0 6.463 4.14 12.2 10.274 14.236l77.362 25.68v-219.59z" fill="#000000" data-original="#000000" style="" class=""></path></g></g></g></svg>