<svg xmlns="http://www.w3.org/2000/svg" version="1.1" xmlns:xlink="http://www.w3.org/1999/xlink" xmlns:svgjs="http://svgjs.com/svgjs" width="512" height="512" x="0" y="0" viewBox="0 0 24 24" style="enable-background:new 0 0 512 512" xml:space="preserve" class=""><g><path xmlns="http://www.w3.org/2000/svg" d="m8.25 21.25c-2.481 0-4.5-2.019-4.5-4.5 0-.48.071-.937.212-1.357.175-.524.742-.805 1.265-.631.524.175.807.742.631 1.265-.071.216-.108.459-.108.723 0 1.378 1.122 2.5 2.5 2.5 1.146 0 2.167-.807 2.426-1.917.125-.538.666-.874 1.201-.746.538.125.872.664.746 1.201-.476 2.038-2.274 3.462-4.373 3.462z" fill="#000000" data-original="#000000" style="" class=""></path><path xmlns="http://www.w3.org/2000/svg" d="m23.25 21.5c-.07 0-.14-.01-.208-.029l-22.5-6.5c-.321-.093-.542-.387-.542-.721v-4.5c0-.334.221-.628.542-.721l22.5-6.5c.227-.063.471-.021.659.121s.299.364.299.6v17.5c0 .236-.111.458-.299.6-.132.098-.29.15-.451.15z" fill="#000000" data-original="#000000" style="" class=""></path><path xmlns="http://www.w3.org/2000/svg" d="m23 22.25c-.552 0-1-.448-1-1v-18.5c0-.552.448-1 1-1s1 .448 1 1v18.5c0 .552-.448 1-1 1z" fill="#000000" data-original="#000000" style="" class=""></path><path xmlns="http://www.w3.org/2000/svg" d="m1 16.25c-.552 0-1-.448-1-1v-6.5c0-.552.448-1 1-1s1 .448 1 1v6.5c0 .552-.448 1-1 1z" fill="#000000" data-original="#000000" style="" class=""></path></g></svg>