<svg xmlns="http://www.w3.org/2000/svg" version="1.1" xmlns:xlink="http://www.w3.org/1999/xlink" xmlns:svgjs="http://svgjs.com/svgjs" width="512" height="512" x="0" y="0" viewBox="0 0 74 74" style="enable-background:new 0 0 512 512" xml:space="preserve" class=""><g><path xmlns="http://www.w3.org/2000/svg" d="m27.554 53.011a25.5 25.5 0 0 1 -18.035-43.54 25.505 25.505 0 1 1 36.07 36.07 25.342 25.342 0 0 1 -18.035 7.47zm0-49.011a23.347 23.347 0 0 0 -16.621 6.885 23.506 23.506 0 1 0 16.621-6.885z" fill="#000000" data-original="#000000" style="" class=""></path><path xmlns="http://www.w3.org/2000/svg" d="m27.554 47.523a20.018 20.018 0 1 1 14.161-5.856 19.966 19.966 0 0 1 -14.161 5.856zm0-38.036a18.019 18.019 0 1 0 12.746 5.271 17.972 17.972 0 0 0 -12.746-5.271z" fill="#000000" data-original="#000000" style="" class=""></path><path xmlns="http://www.w3.org/2000/svg" d="m45.332 52.075a1 1 0 0 1 -.707-.293l-3.587-3.582a1 1 0 0 1 1.414-1.414l2.88 2.88 4.281-4.281-2.864-2.864a1 1 0 0 1 1.414-1.421l3.571 3.571a1 1 0 0 1 0 1.414l-5.695 5.695a1 1 0 0 1 -.707.295z" fill="#000000" data-original="#000000" style="" class=""></path><path xmlns="http://www.w3.org/2000/svg" d="m63.394 72a6.232 6.232 0 0 1 -4.422-1.829l-14.031-14.033a4.3 4.3 0 0 1 0-6.078l5.071-5.07a4.3 4.3 0 0 1 6.078 0l14.03 14.03a6.259 6.259 0 0 1 0 8.844l-2.305 2.3a6.232 6.232 0 0 1 -4.421 1.836zm-10.343-26.268a2.29 2.29 0 0 0 -1.625.672l-5.071 5.07a2.3 2.3 0 0 0 0 3.25l14.031 14.03a4.259 4.259 0 0 0 6.015 0l2.305-2.3a4.26 4.26 0 0 0 0-6.016l-14.03-14.038a2.29 2.29 0 0 0 -1.625-.668z" fill="#000000" data-original="#000000" style="" class=""></path><path xmlns="http://www.w3.org/2000/svg" d="m27.554 38.975a6.242 6.242 0 0 1 -6.236-6.235 1 1 0 1 1 2 0 4.235 4.235 0 1 0 4.236-4.235 6.235 6.235 0 1 1 6.234-6.234 1 1 0 0 1 -2 0 4.235 4.235 0 1 0 -4.234 4.234 6.235 6.235 0 0 1 0 12.47z" fill="#000000" data-original="#000000" style="" class=""></path><path xmlns="http://www.w3.org/2000/svg" d="m27.554 18.036a1 1 0 0 1 -1-1v-1.647a1 1 0 0 1 2 0v1.647a1 1 0 0 1 -1 1z" fill="#000000" data-original="#000000" style="" class=""></path><path xmlns="http://www.w3.org/2000/svg" d="m27.554 40.622a1 1 0 0 1 -1-1v-1.647a1 1 0 0 1 2 0v1.647a1 1 0 0 1 -1 1z" fill="#000000" data-original="#000000" style="" class=""></path></g></svg>