<svg xmlns="http://www.w3.org/2000/svg" version="1.1" xmlns:xlink="http://www.w3.org/1999/xlink" xmlns:svgjs="http://svgjs.com/svgjs" width="512" height="512" x="0" y="0" viewBox="0 0 480.008 480.008" style="enable-background:new 0 0 512 512" xml:space="preserve" class="">
<g xmlns="http://www.w3.org/2000/svg">
	<g>
		<path d="M470.624,425.38L348.32,303.076C370.688,271.684,384,233.412,384,192.004c0-105.888-86.112-192-192-192    S0,86.116,0,192.004s86.112,192,192,192c41.408,0,79.68-13.312,111.072-35.68l122.304,122.304    c6.24,6.24,14.432,9.376,22.624,9.376c8.192,0,16.384-3.136,22.624-9.376C483.136,458.116,483.136,437.892,470.624,425.38z     M208,286.02v17.984c0,8.832-7.168,16-16,16c-8.832,0-16-7.168-16-16v-18.016c-10.016-2.272-19.36-6.496-27.072-12.768    c-6.88-5.6-7.904-15.68-2.304-22.528c5.6-6.912,15.648-7.872,22.496-2.304c6.048,4.928,14.176,7.616,22.88,7.616    c17.344,0,32-10.976,32-24s-14.656-24-32-24c-35.296,0-64-25.12-64-56c0-26.016,20.48-47.744,48-54.016V80.004    c0-8.832,7.168-16,16-16c8.832,0,16,7.168,16,16V98.02c10.016,2.272,19.36,6.496,27.072,12.768    c6.88,5.568,7.904,15.648,2.304,22.496c-5.6,6.88-15.68,7.872-22.496,2.304c-6.048-4.896-14.176-7.584-22.88-7.584    c-17.344,0-32,10.976-32,24s14.656,24,32,24c35.296,0,64,25.12,64,56C256,258.02,235.52,279.748,208,286.02z" fill="#000000" data-original="#000000" style="" class=""></path>
	</g>
</g>
</svg>