<svg xmlns="http://www.w3.org/2000/svg" version="1.1" xmlns:xlink="http://www.w3.org/1999/xlink" xmlns:svgjs="http://svgjs.com/svgjs" width="512" height="512" x="0" y="0" viewBox="0 0 512 512" style="enable-background:new 0 0 512 512" xml:space="preserve" class="">
<g>
		<path d="M496,336h-32v-80c0-8.832-7.168-16-16-16H272v-64h32c8.832,0,16-7.168,16-16V64c0-8.832-7.168-16-16-16h-96    c-8.832,0-16,7.168-16,16v96c0,8.832,7.168,16,16,16h32v64H64c-8.832,0-16,7.168-16,16v80H16c-8.832,0-16,7.168-16,16v96    c0,8.832,7.168,16,16,16h96c8.832,0,16-7.168,16-16v-96c0-8.832-7.168-16-16-16H80v-64h160v64h-32c-8.832,0-16,7.168-16,16v96    c0,8.832,7.168,16,16,16h96c8.832,0,16-7.168,16-16v-96c0-8.832-7.168-16-16-16h-32v-64h160v64h-32c-8.832,0-16,7.168-16,16v96    c0,8.832,7.168,16,16,16h96c8.832,0,16-7.168,16-16v-96C512,343.168,504.832,336,496,336z" fill="#000000" data-original="#000000" style="" class=""></path>
	</g>
</svg>