<svg xmlns="http://www.w3.org/2000/svg" version="1.1" xmlns:xlink="http://www.w3.org/1999/xlink" xmlns:svgjs="http://svgjs.com/svgjs" width="512" height="512" x="0" y="0" viewBox="0 0 512 512" style="enable-background:new 0 0 512 512" xml:space="preserve" class=""><g><g xmlns="http://www.w3.org/2000/svg"><path d="m256 0h-118c-24.853 0-45 20.147-45 45v236c0 .065.005.13.005.195s-.005.13-.005.195v185.61c0 24.853 20.147 45 45 45s45-20.147 45-45v-141h73c89.878 0 163-73.122 163-163s-73.122-163-163-163zm0 236h-73v-146h73c40.252 0 73 32.748 73 73s-32.748 73-73 73z" fill="#000000" data-original="#000000" style="" class=""></path></g></g></svg>