<svg xmlns="http://www.w3.org/2000/svg" version="1.1" xmlns:xlink="http://www.w3.org/1999/xlink" xmlns:svgjs="http://svgjs.com/svgjs" width="512" height="512" x="0" y="0" viewBox="0 0 469.333 469.333" style="enable-background:new 0 0 512 512" xml:space="preserve" class=""><g>
<g xmlns="http://www.w3.org/2000/svg">
	<g>
			<path d="M256,170.667h-42.667v22.421c-24.32,4.949-42.667,26.496-42.667,52.245c0,29.397,23.936,53.333,53.333,53.333h21.333     c5.888,0,10.667,4.8,10.667,10.667C256,315.2,251.221,320,245.333,320h-74.667v42.667h42.667V384H256v-22.421     c24.32-4.949,42.667-26.517,42.667-52.245c0-29.397-23.936-53.333-53.333-53.333H224c-5.888,0-10.667-4.8-10.667-10.667     c0-5.867,4.779-10.667,10.667-10.667h74.667V192H256V170.667z" fill="#000000" data-original="#000000" style="" class=""></path>
			<path d="M328.832,0H85.333C61.803,0,42.667,19.157,42.667,42.667v384c0,23.531,19.136,42.667,42.667,42.667H384     c23.531,0,42.667-19.136,42.667-42.667V97.835L328.832,0z M85.333,426.667v-384h213.333V128H384l0.021,298.667H85.333z" fill="#000000" data-original="#000000" style="" class=""></path>
	</g>
</g>
</g></svg>