<svg xmlns="http://www.w3.org/2000/svg" version="1.1" xmlns:xlink="http://www.w3.org/1999/xlink" xmlns:svgjs="http://svgjs.com/svgjs" width="512" height="512" x="0" y="0" viewBox="0 0 512 512" style="enable-background:new 0 0 512 512" xml:space="preserve" class="">
<g xmlns="http://www.w3.org/2000/svg">
	<g>
		<path d="M241,76V0H45C20.186,0,0,20.186,0,45v196h93.563c4.863,0,9.434,2.358,12.246,6.343c2.813,3.97,3.516,9.067,1.904,13.652    C106.571,264.203,106,267.572,106,271c0,16.538,13.462,30,30,30s30-13.462,30-30c0-3.428-0.571-6.797-1.714-10.005    c-1.611-4.585-0.908-9.683,1.904-13.652c2.813-3.984,7.383-6.343,12.246-6.343H241v-45c-33.091,0-60-26.909-60-60    S207.909,76,241,76z" fill="#000000" data-original="#000000" style="" class=""></path>
	</g>
</g>
<g xmlns="http://www.w3.org/2000/svg">
	<g>
		<path d="M467,0H271v93.563c0,4.863-2.358,9.434-6.343,12.246c-3.97,2.827-9.082,3.501-13.652,1.904    C232.299,100.99,211,116.034,211,136s21.328,34.893,40.005,28.286c4.57-1.626,9.683-0.923,13.652,1.904    c3.984,2.813,6.343,7.383,6.343,12.246V241h45c0-33.091,26.909-60,60-60s60,26.909,60,60h76V45C512,20.186,491.814,0,467,0z" fill="#000000" data-original="#000000" style="" class=""></path>
	</g>
</g>
<g xmlns="http://www.w3.org/2000/svg">
	<g>
		<path d="M260.995,347.714c-4.6,1.611-9.683,0.908-13.652-1.904c-3.984-2.813-6.343-7.383-6.343-12.246V271h-45    c0,33.091-26.909,60-60,60s-60-26.909-60-60H0v196c0,24.814,20.186,45,45,45h196v-93.563c0-4.863,2.358-9.434,6.343-12.246    c3.97-2.798,9.053-3.501,13.652-1.904C279.657,410.893,301,395.966,301,376S279.687,341.034,260.995,347.714z" fill="#000000" data-original="#000000" style="" class=""></path>
	</g>
</g>
<g xmlns="http://www.w3.org/2000/svg">
	<g>
		<path d="M418.437,271c-4.863,0-9.434-2.358-12.246-6.343c-2.813-3.97-3.516-9.067-1.904-13.652    C405.429,247.797,406,244.428,406,241c0-16.538-13.462-30-30-30c-16.538,0-30,13.462-30,30c0,3.428,0.571,6.797,1.714,10.005    c1.611,4.585,0.908,9.683-1.904,13.652c-2.813,3.984-7.383,6.343-12.246,6.343H271v45c33.091,0,60,26.909,60,60s-26.909,60-60,60    v76h196c24.814,0,45-20.186,45-45V271H418.437z" fill="#000000" data-original="#000000" style="" class=""></path>
	</g>
</g>
</svg>