<svg xmlns="http://www.w3.org/2000/svg" version="1.1" xmlns:xlink="http://www.w3.org/1999/xlink" xmlns:svgjs="http://svgjs.com/svgjs" width="512" height="512" x="0" y="0" viewBox="0 0 512 512" style="enable-background:new 0 0 512 512" xml:space="preserve" class="">
<g xmlns="http://www.w3.org/2000/svg">
	<g>
		<path d="M467,0H45C20.187,0,0,20.187,0,45v422c0,24.813,20.187,45,45,45h422c24.813,0,45-20.187,45-45V45    C512,20.187,491.813,0,467,0z M30,45c0-8.271,6.729-15,15-15h196v63.561c0,4.869,2.363,9.436,6.339,12.247    c3.977,2.812,9.068,3.517,13.66,1.896c3.197-1.13,6.562-1.703,10.001-1.703c16.542,0,30,13.458,30,30s-13.458,30-30,30    c-3.439,0-6.804-0.573-10.001-1.703c-4.592-1.623-9.684-0.916-13.66,1.896c-3.976,2.812-6.339,7.378-6.339,12.247V241h-45    c0-33.084-26.916-60-60-60s-60,26.916-60,60H30V45z M241,482H45c-8.271,0-15-6.729-15-15V271h63.561    c4.869,0,9.436-2.363,12.247-6.339c2.811-3.976,3.519-9.068,1.896-13.66C106.573,247.804,106,244.438,106,241    c0-16.542,13.458-30,30-30s30,13.458,30,30c0,3.438-0.573,6.804-1.703,10.001c-1.623,4.591-0.916,9.684,1.896,13.66    S173.57,271,178.439,271H241v45c-33.084,0-60,26.916-60,60s26.916,60,60,60V482z M482,467c0,8.271-6.729,15-15,15H271v-63.561    c0-4.869-2.363-9.436-6.339-12.247c-3.977-2.812-9.068-3.518-13.66-1.896C247.804,405.427,244.439,406,241,406    c-16.542,0-30-13.458-30-30s13.458-30,30-30c3.439,0,6.804,0.573,10.001,1.703c4.592,1.624,9.685,0.916,13.66-1.896    c3.976-2.812,6.339-7.378,6.339-12.247V271h45c0,33.084,26.916,60,60,60s60-26.916,60-60h46V467z M482,241h-63.561    c-4.869,0-9.436,2.363-12.247,6.339c-2.811,3.976-3.519,9.068-1.896,13.66c1.13,3.198,1.703,6.563,1.703,10.001    c0,16.542-13.458,30-30,30s-30-13.458-30-30c0-3.438,0.573-6.804,1.703-10.001c1.623-4.591,0.916-9.684-1.896-13.66    c-2.812-3.976-7.376-6.339-12.245-6.339H271v-45c33.084,0,60-26.916,60-60s-26.916-60-60-60V30h196c8.271,0,15,6.729,15,15V241z" fill="#000000" data-original="#000000" style="" class=""></path>
	</g>
</g>
</svg>