<svg xmlns="http://www.w3.org/2000/svg" version="1.1" xmlns:xlink="http://www.w3.org/1999/xlink" xmlns:svgjs="http://svgjs.com/svgjs" width="512" height="512" x="0" y="0" viewBox="0 0 512 512" style="enable-background:new 0 0 512 512" xml:space="preserve" class=""><g><g xmlns="http://www.w3.org/2000/svg"><path d="m256 512c-85.642 0-155.315-69.674-155.315-155.315 0-24.853 20.147-45 45-45s45 20.147 45 45c0 36.015 29.3 65.315 65.315 65.315s65.315-29.3 65.315-65.315-29.3-65.316-65.315-65.316c-80.331 0-145.685-65.354-145.685-145.685s65.354-145.684 145.685-145.684 145.685 65.354 145.685 145.685c0 24.853-20.147 45-45 45s-45-20.147-45-45c0-30.705-24.981-55.685-55.685-55.685s-55.685 24.98-55.685 55.685 24.98 55.685 55.685 55.685c85.642 0 155.315 69.674 155.315 155.315s-69.673 155.315-155.315 155.315z" fill="#000000" data-original="#000000" style="" class=""></path></g></g></svg>