<svg xmlns="http://www.w3.org/2000/svg" version="1.1" xmlns:xlink="http://www.w3.org/1999/xlink" xmlns:svgjs="http://svgjs.com/svgjs" width="512" height="512" x="0" y="0" viewBox="0 0 32 32" style="enable-background:new 0 0 512 512" xml:space="preserve" class=""><path xmlns="http://www.w3.org/2000/svg" d="m12.1 19.53a.9.9 0 1 0 .9.9.90263.90263 0 0 0 -.9-.9z" fill="#000000" data-original="#000000" style="" class=""></path><path xmlns="http://www.w3.org/2000/svg" d="m12.1 15.93a.9.9 0 1 0 .9.9.90259.90259 0 0 0 -.9-.9z" fill="#000000" data-original="#000000" style="" class=""></path><path xmlns="http://www.w3.org/2000/svg" d="m16 19.53a.9.9 0 1 0 .9.9.90268.90268 0 0 0 -.9-.9z" fill="#000000" data-original="#000000" style="" class=""></path><path xmlns="http://www.w3.org/2000/svg" d="m16 15.93a.9.9 0 1 0 .9.9.90263.90263 0 0 0 -.9-.9z" fill="#000000" data-original="#000000" style="" class=""></path><path xmlns="http://www.w3.org/2000/svg" d="m16 8.2a2.65456 2.65456 0 0 0 -2.65 2.65v1.42h5.3v-1.42a2.65456 2.65456 0 0 0 -2.65-2.65z" fill="#000000" data-original="#000000" style="" class=""></path><path xmlns="http://www.w3.org/2000/svg" d="m19.9 19.53a.9.9 0 1 0 .9.9.90268.90268 0 0 0 -.9-.9z" fill="#000000" data-original="#000000" style="" class=""></path><path xmlns="http://www.w3.org/2000/svg" d="m19.9 15.93a.9.9 0 1 0 .9.9.90263.90263 0 0 0 -.9-.9z" fill="#000000" data-original="#000000" style="" class=""></path><path xmlns="http://www.w3.org/2000/svg" d="m16 1a15 15 0 1 0 15 15 15.00543 15.00543 0 0 0 -15-15zm8.3 21.6a2.39425 2.39425 0 0 1 -2.4 2.4h-11.8a2.39425 2.39425 0 0 1 -2.4-2.4v-9.73a.59542.59542 0 0 1 .6-.6h3.85v-1.42a3.85 3.85 0 1 1 7.7 0v1.42h3.85a.59542.59542 0 0 1 .6.6z" fill="#000000" data-original="#000000" style="" class=""></path></svg>