<svg xmlns="http://www.w3.org/2000/svg" version="1.1" xmlns:xlink="http://www.w3.org/1999/xlink" xmlns:svgjs="http://svgjs.com/svgjs" width="512" height="512" x="0" y="0" viewBox="0 0 403.377 403.377" style="enable-background:new 0 0 512 512" xml:space="preserve" class="">
		<path d="M394.042,303.537L292.184,201.679L394.011,99.853c12.447-12.447,12.447-32.799,0-45.251L348.699,9.357    c-12.447-12.416-32.799-12.416-45.245,0L201.622,111.183L99.8,9.357c-12.416-12.416-32.799-12.416-45.251,0L9.335,54.602    c-12.447,12.447-12.447,32.799,0,45.251l101.827,101.827L9.335,303.537c-12.447,12.447-12.447,32.799,0,45.245l45.251,45.215    c12.447,12.447,32.829,12.447,45.245,0l101.827-101.791l101.821,101.791c12.447,12.447,32.799,12.447,45.312,0l45.251-45.215    C406.488,336.335,406.488,315.983,394.042,303.537z" fill="#000000" data-original="#000000" style="" class=""></path>
</svg>